<?xml version="1.0" encoding="utf-8"?>
<svg id="Layer_1" enable-background="new 0 0 512 512" height="512" viewBox="0 0 512 512" width="512" xmlns="http://www.w3.org/2000/svg">
  <g>
    <path d="m436.985 110.324c-48.377-48.373-112.652-75.013-180.985-75.013s-132.608 26.64-180.985 75.014c-5.859 5.859-5.852 15.36 0 21.213l45.434 45.437c5.859 5.859 15.362 5.853 21.215-.001 30.556-30.564 71.162-47.397 114.336-47.397s83.78 16.833 114.337 47.396c2.813 2.813 6.629 4.395 10.607 4.395 6.482 0 10.295-4.081 10.607-4.394l45.434-45.437c5.859-5.858 5.853-15.36 0-21.213z" style="fill: rgb(255, 170, 50);"/>
    <path d="m436.985 110.324c-48.377-48.373-112.652-75.013-180.985-75.013v94.267c43.174 0 83.78 16.833 114.337 47.396 2.813 2.813 6.629 4.395 10.607 4.395 6.482 0 10.295-4.081 10.607-4.394l45.434-45.437c5.859-5.859 5.853-15.361 0-21.214z" fill="#ffaa32"/>
    <path d="m141.662 405.646c-12.906-12.905-47.17-51.068-47.395-114.367.008-43.157 16.839-83.75 47.395-114.303l-66.647-66.651c-48.374 48.37-75.015 112.646-75.015 180.986s26.641 132.616 75.015 180.986c2.929 2.929 6.767 4.393 10.606 4.393s7.678-1.465 10.607-4.394l45.434-45.437c5.858-5.858 5.858-15.355 0-21.213z" style="fill: rgb(0, 210, 0);"/>
    <path d="m370.338 405.646c12.906-12.905 47.17-51.068 47.395-114.367-.008-43.157-16.839-83.75-47.395-114.303l66.647-66.651c48.374 48.37 75.015 112.646 75.015 180.986s-26.641 132.616-75.015 180.986c-2.929 2.929-6.767 4.393-10.606 4.393s-7.678-1.465-10.607-4.394l-45.434-45.437c-5.858-5.858-5.858-15.355 0-21.213z" fill="#ff1e5a"/>
    <path d="m94.267 291.279c.008-43.157 16.839-83.75 47.395-114.303l-66.647-66.651c-48.374 48.37-75.015 112.646-75.015 180.986z" style="fill: rgb(0, 210, 0);"/>
    <path d="m370.338 405.646c12.906-12.905 47.17-51.068 47.395-114.367l94.267.032c0 68.34-26.641 132.616-75.015 180.986-2.929 2.929-6.767 4.393-10.606 4.393s-7.678-1.465-10.607-4.394l-45.434-45.437c-5.858-5.858-5.858-15.355 0-21.213z" style="fill: rgb(255, 30, 90);"/>
    <path d="M 135.741 270.121 C 117.364 288.498 117.364 318.401 135.741 336.78 C 158.957 359.996 273.055 432.846 285.989 441.076 C 291.92 444.851 299.677 443.999 304.649 439.028 C 309.62 434.057 310.472 426.3 306.697 420.368 C 298.467 407.435 225.617 293.337 202.401 270.121 C 184.022 251.744 154.119 251.744 135.741 270.121 Z" fill="#003c50" transform="matrix(-0.353253, 0.935528, -0.935528, -0.353253, 618.949004, 271.869386)"/>
    <path d="M 129.352 280.349 L 298.256 449.254 C 303.227 444.283 304.079 436.526 300.304 430.594 C 292.074 417.661 219.224 303.564 196.008 280.348 C 177.632 261.972 147.73 261.972 129.352 280.349 Z" fill="#001428" transform="matrix(-0.354885, 0.93491, -0.93491, -0.354885, 627.269917, 282.985661)"/>
  </g>
</svg>