<?xml version="1.0" encoding="utf-8"?>
<svg id="Layer_1" enable-background="new 0 0 512 512" height="512" viewBox="0 0 512 512" width="512" xmlns="http://www.w3.org/2000/svg">
  <g>
    <path d="m436.985 110.324c-48.377-48.373-112.652-75.013-180.985-75.013s-132.608 26.64-180.985 75.014c-5.859 5.859-5.852 15.36 0 21.213l45.434 45.437c5.859 5.859 15.362 5.853 21.215-.001 30.556-30.564 71.162-47.397 114.336-47.397s83.78 16.833 114.337 47.396c2.813 2.813 6.629 4.395 10.607 4.395 6.482 0 10.295-4.081 10.607-4.394l45.434-45.437c5.859-5.858 5.853-15.36 0-21.213z" style="fill: rgb(255, 170, 50);"/>
    <path d="m436.985 110.324c-48.377-48.373-112.652-75.013-180.985-75.013v94.267c43.174 0 83.78 16.833 114.337 47.396 2.813 2.813 6.629 4.395 10.607 4.395 6.482 0 10.295-4.081 10.607-4.394l45.434-45.437c5.859-5.859 5.853-15.361 0-21.214z" fill="#ffaa32"/>
    <path d="m141.662 405.646c-12.906-12.905-47.17-51.068-47.395-114.367.008-43.157 16.839-83.75 47.395-114.303l-66.647-66.651c-48.374 48.37-75.015 112.646-75.015 180.986s26.641 132.616 75.015 180.986c2.929 2.929 6.767 4.393 10.606 4.393s7.678-1.465 10.607-4.394l45.434-45.437c5.858-5.858 5.858-15.355 0-21.213z" style="fill: rgb(0, 210, 0);"/>
    <path d="m370.338 405.646c12.906-12.905 47.17-51.068 47.395-114.367-.008-43.157-16.839-83.75-47.395-114.303l66.647-66.651c48.374 48.37 75.015 112.646 75.015 180.986s-26.641 132.616-75.015 180.986c-2.929 2.929-6.767 4.393-10.606 4.393s-7.678-1.465-10.607-4.394l-45.434-45.437c-5.858-5.858-5.858-15.355 0-21.213z" fill="#ff1e5a"/>
    <path d="m94.267 291.279c.008-43.157 16.839-83.75 47.395-114.303l-66.647-66.651c-48.374 48.37-75.015 112.646-75.015 180.986z" style="fill: rgb(0, 210, 0);"/>
    <path d="m370.338 405.646c12.906-12.905 47.17-51.068 47.395-114.367l94.267.032c0 68.34-26.641 132.616-75.015 180.986-2.929 2.929-6.767 4.393-10.606 4.393s-7.678-1.465-10.607-4.394l-45.434-45.437c-5.858-5.858-5.858-15.355 0-21.213z" style="fill: rgb(255, 30, 90);"/>
    <path d="M 178.568 171.684 C 160.191 190.061 160.191 219.964 178.568 238.342 C 201.784 261.558 315.88 334.408 328.814 342.638 C 334.745 346.413 342.502 345.561 347.474 340.59 C 352.445 335.619 353.297 327.862 349.522 321.93 C 341.292 308.997 268.442 194.9 245.226 171.684 C 226.849 153.307 196.946 153.307 178.568 171.684 Z" fill="#003c50" transform="matrix(-0.709288, -0.704919, 0.704919, -0.709288, 264.307784, 611.8867)"/>
    <path d="M 164.507 170.406 L 333.411 339.311 C 338.382 334.34 339.234 326.583 335.459 320.651 C 327.229 307.718 254.379 193.621 231.163 170.405 C 212.787 152.029 182.885 152.029 164.507 170.406 Z" fill="#001428" transform="matrix(-0.704097, -0.710103, 0.710103, -0.704097, 251.911709, 600.906642)"/>
  </g>
</svg>