<?xml version="1.0" encoding="utf-8"?>
<svg id="Layer_1" enable-background="new 0 0 512 512" height="512" viewBox="0 0 512 512" width="512" xmlns="http://www.w3.org/2000/svg">
  <g>
    <path d="m436.985 110.324c-48.377-48.373-112.652-75.013-180.985-75.013s-132.608 26.64-180.985 75.014c-5.859 5.859-5.852 15.36 0 21.213l45.434 45.437c5.859 5.859 15.362 5.853 21.215-.001 30.556-30.564 71.162-47.397 114.336-47.397s83.78 16.833 114.337 47.396c2.813 2.813 6.629 4.395 10.607 4.395 6.482 0 10.295-4.081 10.607-4.394l45.434-45.437c5.859-5.858 5.853-15.36 0-21.213z" style="fill: rgb(255, 170, 50);"/>
    <path d="m436.985 110.324c-48.377-48.373-112.652-75.013-180.985-75.013v94.267c43.174 0 83.78 16.833 114.337 47.396 2.813 2.813 6.629 4.395 10.607 4.395 6.482 0 10.295-4.081 10.607-4.394l45.434-45.437c5.859-5.859 5.853-15.361 0-21.214z" fill="#ffaa32"/>
    <path d="m141.662 405.646c-12.906-12.905-47.17-51.068-47.395-114.367.008-43.157 16.839-83.75 47.395-114.303l-66.647-66.651c-48.374 48.37-75.015 112.646-75.015 180.986s26.641 132.616 75.015 180.986c2.929 2.929 6.767 4.393 10.606 4.393s7.678-1.465 10.607-4.394l45.434-45.437c5.858-5.858 5.858-15.355 0-21.213z" style="fill: rgb(0, 210, 0);"/>
    <path d="m370.338 405.646c12.906-12.905 47.17-51.068 47.395-114.367-.008-43.157-16.839-83.75-47.395-114.303l66.647-66.651c48.374 48.37 75.015 112.646 75.015 180.986s-26.641 132.616-75.015 180.986c-2.929 2.929-6.767 4.393-10.606 4.393s-7.678-1.465-10.607-4.394l-45.434-45.437c-5.858-5.858-5.858-15.355 0-21.213z" fill="#ff1e5a"/>
    <path d="m94.267 291.279c.008-43.157 16.839-83.75 47.395-114.303l-66.647-66.651c-48.374 48.37-75.015 112.646-75.015 180.986z" style="fill: rgb(0, 210, 0);"/>
    <path d="m370.338 405.646c12.906-12.905 47.17-51.068 47.395-114.367l94.267.032c0 68.34-26.641 132.616-75.015 180.986-2.929 2.929-6.767 4.393-10.606 4.393s-7.678-1.465-10.607-4.394l-45.434-45.437c-5.858-5.858-5.858-15.355 0-21.213z" style="fill: rgb(255, 30, 90);"/>
    <path d="M 209.251 258.615 C 190.874 276.992 190.874 306.895 209.251 325.274 C 232.467 348.49 346.563 421.34 359.497 429.57 C 365.428 433.345 373.185 432.493 378.157 427.522 C 383.128 422.551 383.98 414.794 380.205 408.862 C 371.975 395.929 299.125 281.831 275.909 258.615 C 257.532 240.238 227.629 240.238 209.251 258.615 Z" fill="#003c50" transform="matrix(0.982484, -0.186346, 0.186346, 0.982484, -57.992412, 59.782671)"/>
    <path d="M 209.252 256.059 L 378.156 424.964 C 383.127 419.993 383.979 412.236 380.204 406.304 C 371.974 393.371 299.124 279.274 275.908 256.058 C 257.532 237.682 227.63 237.682 209.252 256.059 Z" fill="#001428" transform="matrix(0.97753, -0.210794, 0.210794, 0.97753, -63.676386, 69.870419)"/>
  </g>
</svg>